<svg xmlns="http://www.w3.org/2000/svg" xmlns:xlink="http://www.w3.org/1999/xlink" version="1.1" x="0px" y="0px" viewBox="0 0 91 113.75" enable-background="new 0 0 91 91" xml:space="preserve"><g><g><path d="M89.763,84.877c-1.875-4.225-4.154-9.297-7.848-12.32c5.201-4.148,8.371-10.492,8.371-17.334    c0-12.223-9.945-22.166-22.17-22.166c-7.129,0-13.625,3.35-17.797,9.012c-3.9-3.412-8.988-5.496-14.564-5.496    c-12.223,0-22.168,9.943-22.168,22.168c0,4.463,1.338,8.674,3.668,12.207l-0.268,0.205c-2.086,1.582-6.969,5.287-5.512,9.844    c0.404,1.268,1.428,2.105,2.883,2.363c0.309,0.053,0.641,0.08,0.99,0.08c0.146,0,0.314-0.029,0.469-0.039    c-1.402,2.49-2.117,4.91-2.164,5.072c-0.256,0.887,0.254,1.811,1.139,2.066c0.156,0.047,0.313,0.066,0.467,0.066    c0.725,0,1.391-0.475,1.604-1.205c0.438-1.508,2.078-5.764,4.404-7.551c1.951-0.926,3.689-2.131,4.564-3.262    c0.008-0.01,0.008-0.021,0.016-0.031c1.363,0.682,2.801,1.246,4.32,1.641c0.141,0.037,0.283,0.053,0.422,0.053    c0.742,0,1.42-0.498,1.615-1.248c0.232-0.895-0.303-1.807-1.197-2.037c-8.289-2.156-14.08-9.65-14.08-18.225    c0-10.381,8.445-18.828,18.828-18.828s18.83,8.447,18.83,18.828c0,7.432-4.391,14.188-11.186,17.209    c-0.844,0.375-1.223,1.363-0.848,2.205c0.375,0.846,1.363,1.223,2.205,0.848c0.648-0.287,1.273-0.615,1.883-0.961    c3.66,2.172,7.164,6.412,9.486,11.58c0.279,0.619,0.889,0.984,1.525,0.984c0.229,0,0.461-0.047,0.684-0.146    c0.842-0.377,1.217-1.365,0.838-2.207c-2.33-5.18-5.791-9.566-9.541-12.242c1.486-1.195,2.809-2.566,3.932-4.084    c2.586,2.256,5.646,3.891,8.969,4.754c0.141,0.037,0.281,0.053,0.42,0.053c0.744,0,1.422-0.498,1.615-1.25    c0.232-0.893-0.303-1.805-1.195-2.035c-2.994-0.777-5.717-2.322-7.994-4.426c1.633-3.115,2.547-6.625,2.547-10.281    c0-5.43-1.971-10.404-5.223-14.262c3.523-5.064,9.184-8.082,15.414-8.082c10.383,0,18.828,8.445,18.828,18.826    c0,7.434-4.389,14.189-11.182,17.209c-0.844,0.375-1.223,1.361-0.848,2.205c0.277,0.623,0.887,0.992,1.527,0.992    c0.227,0,0.457-0.047,0.678-0.145c0.637-0.283,1.246-0.604,1.848-0.941c3.545,2.311,5.867,7.463,7.742,11.689l0.51,1.141    c0.277,0.619,0.887,0.986,1.523,0.986c0.229,0,0.461-0.047,0.684-0.146c0.84-0.377,1.217-1.365,0.84-2.207L89.763,84.877z     M19.298,73.59c1.082,1.201,2.305,2.275,3.635,3.221c-1.252,1.281-4.602,2.992-6.977,3.262c-0.857,0.094-1.244-0.043-1.299-0.092    c-0.738-2.309,2.826-5.012,4.35-6.168L19.298,73.59z"/><path d="M71.144,54.912c-4.055,2.908-7.652,0.355-8.059,0.047c-0.908-0.705-2.213-0.543-2.92,0.359    c-0.713,0.906-0.557,2.217,0.35,2.93c1.285,1.01,3.742,2.193,6.646,2.193c2.004,0,4.223-0.564,6.416-2.137    c0.938-0.672,1.15-1.977,0.479-2.914S72.079,54.24,71.144,54.912z"/><path d="M63.894,47.729c0-1.348-1.1-2.445-2.451-2.445c-1.348,0-2.445,1.097-2.445,2.445c0,1.352,1.098,2.449,2.445,2.449    C62.794,50.178,63.894,49.08,63.894,47.729z"/><path d="M72.72,45.284c-1.35,0-2.447,1.097-2.447,2.445c0,1.352,1.098,2.449,2.447,2.449s2.449-1.098,2.449-2.449    C75.169,46.381,74.069,45.284,72.72,45.284z"/><path d="M10.829,63.129l-3.367-3.105c-0.68-0.625-1.736-0.582-2.361,0.096c-0.625,0.676-0.582,1.734,0.096,2.359l3.367,3.107    c0.322,0.295,0.729,0.441,1.133,0.441c0.449,0,0.898-0.182,1.227-0.537C11.55,64.813,11.507,63.756,10.829,63.129z"/><path d="M8.001,68.43c-1.756-0.41-5.229-0.795-5.375-0.813c-0.91-0.092-1.742,0.561-1.844,1.479    c-0.102,0.916,0.561,1.742,1.477,1.842c0.035,0.004,3.42,0.381,4.984,0.744c0.127,0.031,0.254,0.045,0.381,0.045    c0.758,0,1.445-0.521,1.625-1.293C9.458,69.537,8.899,68.639,8.001,68.43z"/><path d="M6.683,75.006c-0.719,0.32-1.375,0.705-2.012,1.08c-0.635,0.371-1.234,0.723-1.836,0.977    c-0.852,0.355-1.252,1.334-0.896,2.186c0.27,0.639,0.889,1.023,1.541,1.023c0.217,0,0.436-0.041,0.645-0.131    c0.809-0.338,1.535-0.764,2.236-1.176c0.584-0.34,1.133-0.664,1.686-0.91c0.84-0.375,1.219-1.363,0.844-2.205    S7.526,74.627,6.683,75.006z"/><path d="M46.97,58.223c-0.672-0.938-1.977-1.152-2.912-0.48c-4.057,2.912-7.652,0.355-8.059,0.047    c-0.908-0.701-2.211-0.543-2.92,0.359c-0.713,0.906-0.555,2.221,0.352,2.932c1.283,1.01,3.738,2.191,6.645,2.191    c2.004,0,4.223-0.563,6.414-2.137C47.427,60.463,47.642,59.158,46.97,58.223z"/><circle cx="34.359" cy="50.561" r="2.448"/><path d="M48.081,50.561c0-1.35-1.098-2.445-2.443-2.445c-1.352,0-2.451,1.096-2.451,2.445s1.1,2.447,2.451,2.447    C46.983,53.008,48.081,51.91,48.081,50.561z"/><path d="M53.946,0.592c-2.836,0-5.584,1.131-7.539,3.098c-0.27,0.273-0.527,0.559-0.771,0.863    c-2.406-2.992-6.264-4.502-10.127-3.805c-3.266,0.602-5.836,2.396-7.641,5.344c-2.531,4.156-2.73,8.17-0.596,11.926    c1.117,1.977,2.525,3.852,4.436,5.908c3.418,3.629,7.453,7.066,12.795,10.885c0.361,0.221,0.74,0.332,1.131,0.332    c0.658,0,1.096-0.314,1.313-0.473c4.742-3.385,8.469-6.508,11.727-9.828c1.828-1.867,3.902-4.16,5.42-7.016    c0.701-1.332,1.414-2.951,1.369-4.844c-0.104-4.08-1.732-7.451-4.838-10.016C58.776,1.436,56.407,0.592,53.946,0.592z     M62.122,13.064c0.027,1.121-0.457,2.205-0.982,3.201c-1.314,2.473-3.191,4.543-4.852,6.238    c-2.961,3.018-6.346,5.879-10.664,9.004c-4.711-3.42-8.375-6.572-11.477-9.863c-1.721-1.854-2.982-3.529-3.971-5.273    c-1.533-2.699-1.359-5.412,0.543-8.537c1.303-2.131,3.068-3.373,5.389-3.801c0.439-0.08,0.887-0.121,1.324-0.121    c2.721,0,5.129,1.504,6.498,4.129c0.066,0.129,0.135,0.262,0.242,0.457c0.301,0.541,0.85,0.842,1.502,0.857    c0.623-0.016,1.184-0.377,1.457-0.936c0.477-0.973,0.998-1.727,1.645-2.373c1.334-1.344,3.219-2.115,5.17-2.115    c1.684,0,3.297,0.572,4.549,1.609C60.856,7.49,62.044,9.951,62.122,13.064z"/><path d="M54.884,6.67c-0.879-0.299-1.82,0.188-2.109,1.061c-0.289,0.877,0.188,1.82,1.063,2.109c1.043,0.344,1.4,1.266,1.52,1.783    c0.256,1.104-0.07,2.334-0.816,3.063c-0.658,0.645-0.67,1.701-0.023,2.361c0.326,0.334,0.76,0.502,1.193,0.502    c0.422,0,0.842-0.158,1.168-0.477c1.57-1.537,2.25-3.973,1.732-6.205C58.136,8.824,56.778,7.293,54.884,6.67z"/><path d="M51.452,18.17c-0.316,0.318-0.484,0.752-0.484,1.186s0.168,0.869,0.484,1.17c0.316,0.316,0.734,0.5,1.186,0.5    c0.436,0,0.869-0.184,1.17-0.5c0.316-0.301,0.5-0.736,0.5-1.17c0-0.449-0.184-0.885-0.5-1.186    C53.188,17.553,52.069,17.553,51.452,18.17z"/></g></g><text x="0" y="106" fill="#000000" font-size="5px" font-weight="bold" font-family="'Helvetica Neue', Helvetica, Arial-Unicode, Arial, Sans-serif">Created by BomSymbols</text><text x="0" y="111" fill="#000000" font-size="5px" font-weight="bold" font-family="'Helvetica Neue', Helvetica, Arial-Unicode, Arial, Sans-serif">from the Noun Project</text></svg>